<svg xmlns="http://www.w3.org/2000/svg" viewBox="0 0 1600 900" preserveAspectRatio="xMidYMid slice">
<rect width="100%" height="100%" fill="#0A0820"/>
<defs><radialGradient id="a" cx="32%" cy="35%" r="60%">
<stop offset="0%" stop-color="rgba(70,80,158,0.10)"/>
<stop offset="100%" stop-color="rgba(70,80,158,0)"/>
</radialGradient></defs>
<rect width="100%" height="100%" fill="url(#a)"/>
<circle cx="414.4" cy="616.7" r="0.70" fill="#F5F2FF" fill-opacity="0.72"/>
<circle cx="368.9" cy="132.4" r="0.35" fill="#F5F2FF" fill-opacity="0.67"/>
<circle cx="850.1" cy="192.5" r="0.35" fill="#F5F2FF" fill-opacity="0.52"/>
<circle cx="973.4" cy="13.0" r="0.35" fill="#F5F2FF" fill-opacity="0.37"/>
<circle cx="1295.6" cy="725.4" r="0.70" fill="#D2A55F" fill-opacity="0.67"/>
<circle cx="1270.0" cy="231.0" r="1.00" fill="#F5F2FF" fill-opacity="0.54"/>
<circle cx="902.6" cy="386.6" r="0.35" fill="#F5F2FF" fill-opacity="0.51"/>
<circle cx="187.8" cy="737.7" r="0.70" fill="#F5F2FF" fill-opacity="0.79"/>
<circle cx="886.8" cy="673.6" r="0.35" fill="#F5F2FF" fill-opacity="0.64"/>
<circle cx="282.6" cy="182.4" r="0.50" fill="#F5F2FF" fill-opacity="0.43"/>
<circle cx="968.8" cy="356.2" r="0.35" fill="#F5F2FF" fill-opacity="0.55"/>
<circle cx="377.1" cy="175.0" r="0.35" fill="#F5F2FF" fill-opacity="0.34"/>
<circle cx="1525.9" cy="350.7" r="0.70" fill="#F5F2FF" fill-opacity="0.77"/>
<circle cx="226.8" cy="725.5" r="0.70" fill="#F5F2FF" fill-opacity="0.62"/>
<circle cx="661.6" cy="781.4" r="1.00" fill="#F5F2FF" fill-opacity="0.70"/>
<circle cx="1365.8" cy="337.3" r="0.70" fill="#D2A55F" fill-opacity="0.37"/>
<circle cx="965.6" cy="650.4" r="0.35" fill="#F5F2FF" fill-opacity="0.61"/>
<circle cx="946.0" cy="323.4" r="0.70" fill="#F5F2FF" fill-opacity="0.47"/>
<circle cx="263.2" cy="615.6" r="0.35" fill="#F5F2FF" fill-opacity="0.41"/>
<circle cx="1029.6" cy="500.5" r="0.50" fill="#F5F2FF" fill-opacity="0.32"/>
<circle cx="548.9" cy="83.4" r="0.35" fill="#F5F2FF" fill-opacity="0.80"/>
<circle cx="482.4" cy="242.0" r="0.50" fill="#F5F2FF" fill-opacity="0.34"/>
<circle cx="586.7" cy="751.1" r="0.35" fill="#F5F2FF" fill-opacity="0.47"/>
<circle cx="1551.7" cy="465.0" r="0.50" fill="#F5F2FF" fill-opacity="0.63"/>
<circle cx="50.8" cy="451.2" r="1.00" fill="#F5F2FF" fill-opacity="0.67"/>
<circle cx="1094.5" cy="764.2" r="0.35" fill="#F5F2FF" fill-opacity="0.59"/>
<circle cx="390.8" cy="258.6" r="0.35" fill="#F5F2FF" fill-opacity="0.48"/>
<circle cx="636.2" cy="78.1" r="0.70" fill="#F5F2FF" fill-opacity="0.60"/>
<circle cx="1238.2" cy="171.4" r="0.50" fill="#F5F2FF" fill-opacity="0.58"/>
<circle cx="463.1" cy="391.5" r="0.35" fill="#F5F2FF" fill-opacity="0.73"/>
<circle cx="1317.6" cy="196.4" r="0.35" fill="#F5F2FF" fill-opacity="0.49"/>
<circle cx="205.2" cy="324.9" r="0.50" fill="#D2A55F" fill-opacity="0.74"/>
<circle cx="69.7" cy="481.5" r="0.35" fill="#F5F2FF" fill-opacity="0.70"/>
<circle cx="1428.6" cy="490.9" r="0.35" fill="#F5F2FF" fill-opacity="0.30"/>
<circle cx="1388.9" cy="134.8" r="0.50" fill="#F5F2FF" fill-opacity="0.49"/>
<circle cx="1282.9" cy="192.4" r="0.70" fill="#D2A55F" fill-opacity="0.63"/>
<circle cx="831.8" cy="828.4" r="0.50" fill="#F5F2FF" fill-opacity="0.59"/>
<circle cx="1343.4" cy="807.8" r="0.35" fill="#F5F2FF" fill-opacity="0.37"/>
<circle cx="1299.9" cy="480.2" r="0.35" fill="#F5F2FF" fill-opacity="0.78"/>
<circle cx="139.0" cy="46.9" r="0.35" fill="#F5F2FF" fill-opacity="0.66"/>
<circle cx="1145.8" cy="779.7" r="1.40" fill="#F5F2FF" fill-opacity="0.70"/>
<circle cx="995.4" cy="749.8" r="0.70" fill="#F5F2FF" fill-opacity="0.45"/>
<circle cx="175.1" cy="277.6" r="1.40" fill="#F5F2FF" fill-opacity="0.54"/>
<circle cx="1255.7" cy="405.2" r="0.35" fill="#F5F2FF" fill-opacity="0.31"/>
<circle cx="531.1" cy="843.5" r="0.35" fill="#F5F2FF" fill-opacity="0.73"/>
<circle cx="665.8" cy="893.9" r="0.70" fill="#F5F2FF" fill-opacity="0.54"/>
<circle cx="737.7" cy="811.8" r="0.50" fill="#F5F2FF" fill-opacity="0.40"/>
<circle cx="761.8" cy="171.6" r="0.50" fill="#F5F2FF" fill-opacity="0.32"/>
<circle cx="285.9" cy="92.6" r="0.50" fill="#F5F2FF" fill-opacity="0.45"/>
<circle cx="795.1" cy="469.2" r="0.70" fill="#F5F2FF" fill-opacity="0.41"/>
<circle cx="1038.5" cy="385.6" r="1.00" fill="#F5F2FF" fill-opacity="0.31"/>
<circle cx="229.5" cy="755.8" r="0.35" fill="#F5F2FF" fill-opacity="0.33"/>
<circle cx="1481.4" cy="231.7" r="0.50" fill="#F5F2FF" fill-opacity="0.60"/>
<circle cx="848.6" cy="8.6" r="0.50" fill="#F5F2FF" fill-opacity="0.68"/>
<circle cx="352.7" cy="45.7" r="0.70" fill="#F5F2FF" fill-opacity="0.51"/>
<circle cx="1184.9" cy="90.4" r="1.00" fill="#F5F2FF" fill-opacity="0.77"/>
<circle cx="1330.1" cy="613.2" r="0.70" fill="#F5F2FF" fill-opacity="0.63"/>
<circle cx="411.5" cy="120.2" r="0.70" fill="#F5F2FF" fill-opacity="0.60"/>
<circle cx="1026.7" cy="549.1" r="0.50" fill="#F5F2FF" fill-opacity="0.69"/>
<circle cx="609.8" cy="733.2" r="0.50" fill="#F5F2FF" fill-opacity="0.59"/>
<circle cx="1492.8" cy="400.0" r="1.00" fill="#F5F2FF" fill-opacity="0.47"/>
<circle cx="1460.2" cy="615.3" r="0.35" fill="#F5F2FF" fill-opacity="0.34"/>
<circle cx="662.9" cy="732.6" r="0.70" fill="#F5F2FF" fill-opacity="0.79"/>
<circle cx="656.8" cy="507.8" r="0.70" fill="#F5F2FF" fill-opacity="0.34"/>
<circle cx="233.3" cy="292.2" r="0.35" fill="#F5F2FF" fill-opacity="0.78"/>
<circle cx="1493.6" cy="265.1" r="0.35" fill="#F5F2FF" fill-opacity="0.79"/>
<circle cx="180.6" cy="115.7" r="0.35" fill="#F5F2FF" fill-opacity="0.49"/>
<circle cx="254.6" cy="14.1" r="0.70" fill="#F5F2FF" fill-opacity="0.32"/>
<circle cx="904.7" cy="795.2" r="0.70" fill="#F5F2FF" fill-opacity="0.65"/>
<circle cx="1275.4" cy="767.7" r="0.35" fill="#F5F2FF" fill-opacity="0.33"/>
</svg>
